<svg width="320" height="240" viewBox="0 0 320 240" fill="none" xmlns="http://www.w3.org/2000/svg" role="img" aria-label="のり">
  <defs>
    <linearGradient id="noriBase" x1="0" y1="0" x2="1" y2="1">
      <stop offset="0%" stop-color="#1f2d24"/>
      <stop offset="55%" stop-color="#16231d"/>
      <stop offset="100%" stop-color="#0f1713"/>
    </linearGradient>
    <linearGradient id="noriSheen" x1="0" y1="0" x2="0" y2="1">
      <stop offset="0%" stop-color="#b2d6b4" stop-opacity="0.28"/>
      <stop offset="100%" stop-color="#b2d6b4" stop-opacity="0"/>
    </linearGradient>
    <filter id="shadow" x="-15%" y="-20%" width="130%" height="150%">
      <feDropShadow dx="0" dy="7" stdDeviation="6" flood-color="#000000" flood-opacity="0.22"/>
    </filter>
  </defs>

  <g filter="url(#shadow)">
    <rect x="48" y="20" width="224" height="200" rx="14" fill="url(#noriBase)"/>
    <rect x="56" y="28" width="208" height="184" rx="10" fill="url(#noriSheen)"/>

    <g opacity="0.28" stroke="#7ca387" stroke-width="2" stroke-linecap="round">
      <path d="M78 38V206"/>
      <path d="M98 34V210"/>
      <path d="M118 32V212"/>
      <path d="M138 36V208"/>
      <path d="M158 34V210"/>
      <path d="M178 30V214"/>
      <path d="M198 35V209"/>
      <path d="M218 33V211"/>
      <path d="M238 37V207"/>
    </g>

    <g opacity="0.2" stroke="#30453a" stroke-width="3" stroke-linecap="round">
      <path d="M62 54H258"/>
      <path d="M60 82H262"/>
      <path d="M64 110H256"/>
      <path d="M59 138H261"/>
      <path d="M65 166H255"/>
      <path d="M61 194H259"/>
    </g>
  </g>
</svg>
